<svg width="1440" height="410" viewBox="0 0 1440 410" fill="none" xmlns="http://www.w3.org/2000/svg">
<g clip-path="url(#clip0_66_249)">
<path d="M1246 40.5915C1246 37.4351 1248.39 34.8705 1250.78 33.2923C1250.58 33.2923 1250.39 33.2923 1250.39 33.095C1250.98 32.1086 1251.98 31.5168 1252.78 30.7277C1253.57 30.1358 1254.37 29.7413 1255.17 29.544C1255.57 29.3467 1256.17 29.3467 1256.76 29.1495C1256.96 29.1495 1256.56 29.1495 1256.37 28.9522L1256.17 28.7549C1260.15 26.5849 1265.14 28.5576 1268.92 30.9249C1268.92 30.5304 1268.72 30.1358 1268.72 29.9386C1268.72 30.1358 1268.33 29.9386 1268.13 29.9386C1267.13 29.1495 1266.33 28.3603 1265.34 27.5712C1265.14 27.374 1265.14 27.1767 1264.94 26.9794V27.1767C1264.94 27.374 1264.54 27.1767 1264.34 27.1767C1263.54 26.5849 1262.94 25.993 1262.15 25.4012C1262.35 25.0066 1262.15 24.6121 1262.15 24.4148H1261.75C1260.55 23.823 1259.36 23.0339 1258.16 22.442C1257.36 22.0475 1257.16 21.6529 1256.96 21.0611C1256.96 21.2584 1256.96 21.2584 1256.76 21.4557C1256.76 21.6529 1256.37 21.4557 1256.37 21.4557C1255.17 20.8638 1254.17 20.0747 1252.98 19.4829C1252.18 18.8911 1251.98 18.6938 1251.78 18.2992V18.4965C1251.78 18.6938 1251.38 18.4965 1251.38 18.4965C1250.58 17.9047 1249.19 17.5101 1248.99 16.5237C1248.59 14.9455 1248.39 13.3673 1247.99 11.7891C1248.39 11.7891 1248.79 11.5918 1249.19 11.5918C1249.79 11.3946 1250.39 11.3946 1250.98 11.3946C1251.18 11.3946 1251.38 11.3946 1251.58 11.3946C1252.58 11.1973 1253.57 11.1973 1254.57 11.3946C1255.17 11.3946 1255.77 11.7891 1255.97 11H1256.17C1258.76 11.3946 1262.74 12.1837 1264.74 14.1564C1264.74 13.9591 1264.74 13.9591 1264.74 13.7619C1264.94 13.7619 1265.14 13.7619 1265.14 13.7619C1267.53 15.1428 1269.72 17.1156 1270.72 19.8774L1270.92 19.6802C1270.92 19.4829 1271.32 19.6802 1271.51 19.8774C1272.71 21.4557 1273.31 23.2312 1273.51 25.2039C1273.71 24.4148 1274.11 23.6257 1274.5 22.8366C1274.9 21.6529 1275.3 20.8638 1276.1 20.6666C1276.1 20.6666 1276.3 20.6666 1276.5 20.6666C1276.5 20.272 1276.5 19.8774 1276.5 19.6802C1276.9 19.0883 1277.5 18.6938 1278.09 18.102C1279.49 16.9183 1281.08 16.1292 1282.68 15.5374C1282.88 15.5374 1283.08 15.5374 1283.08 15.7346C1283.08 15.7346 1283.08 15.7346 1283.08 15.9319C1284.07 14.7483 1286.27 14.3537 1287.86 14.1564C1289.26 13.7619 1290.45 13.5646 1291.85 13.5646C1291.85 13.5646 1292.25 13.5646 1292.25 13.7619C1292.05 13.9591 1291.85 14.1564 1291.85 14.3537C1297.83 14.551 1303.81 18.6938 1306 24.4148C1306 24.6121 1305.6 24.4148 1305.6 24.4148C1304.21 23.4284 1302.41 23.2312 1300.82 23.4284C1300.62 23.4284 1300.42 23.4284 1300.42 23.2312C1300.42 23.0339 1300.42 22.8366 1300.42 22.6393C1299.62 23.2312 1299.02 23.823 1298.62 24.6121C1298.62 24.8094 1298.43 24.6121 1298.23 24.6121C1297.03 24.2175 1295.63 23.823 1294.44 23.823C1294.24 23.823 1294.04 23.823 1294.04 23.6257C1294.04 23.4284 1294.04 23.2312 1294.04 23.0339C1293.84 23.4284 1293.64 23.823 1293.44 24.2175H1293.24C1291.25 23.823 1288.86 23.823 1286.86 24.4148C1286.66 24.4148 1286.47 24.4148 1286.47 24.2175C1286.07 24.2175 1286.07 24.0203 1286.07 24.0203C1285.87 24.4148 1285.67 24.8094 1285.47 25.2039H1285.27C1283.28 25.2039 1281.48 25.993 1279.89 26.9794C1279.69 26.9794 1279.49 26.9794 1279.49 26.7821L1279.29 26.5849C1279.29 26.7821 1279.29 27.1767 1279.29 27.374C1277.5 28.1631 1275.9 29.3467 1274.31 30.7277C1279.09 27.7685 1285.67 27.9658 1290.85 30.1358C1297.43 32.7004 1300.62 39.4078 1299.82 46.3125C1299.82 46.5098 1299.42 46.3125 1299.42 46.3125C1298.62 45.918 1297.83 45.5234 1297.23 45.1289C1297.03 44.9316 1296.83 44.7343 1296.63 44.1425C1296.43 44.1425 1296.43 44.1425 1296.23 44.1425C1295.24 43.5506 1294.64 42.9588 1293.44 42.367C1293.44 42.367 1293.24 42.367 1293.24 42.1697C1293.24 41.1833 1293.04 40.1969 1292.64 39.4078C1292.64 39.6051 1292.64 39.8024 1292.45 39.9997C1292.45 40.1969 1292.05 39.9997 1292.05 39.9997C1291.65 39.8024 1290.65 39.6051 1290.45 39.0133C1290.25 38.4215 1290.05 37.6323 1289.85 37.0405C1289.85 37.0405 1289.85 37.0405 1289.85 37.2378C1289.85 37.4351 1289.46 37.2378 1289.46 37.2378C1288.66 36.8432 1287.66 36.2514 1286.66 36.0541C1286.66 36.0541 1286.47 36.0541 1286.47 35.8569C1286.27 35.265 1286.07 34.6732 1285.67 34.2786C1285.67 34.4759 1285.67 34.8705 1285.67 35.0678C1285.67 35.265 1285.47 35.0678 1285.27 35.0678C1286.07 35.8569 1286.66 36.4487 1287.06 37.2378C1290.85 42.367 1292.05 52.8227 1286.07 56.9655C1285.87 56.9655 1285.67 56.9655 1285.47 56.7682C1284.87 54.9927 1283.87 53.6118 1282.68 52.2308C1283.08 51.639 1283.28 50.8499 1283.28 50.0608C1283.08 50.4553 1282.68 50.8499 1282.48 51.2444C1282.28 51.4417 1282.08 51.2444 1281.88 51.0472C1281.28 49.8635 1280.68 48.6798 1280.09 47.6935C1280.49 47.1016 1280.88 46.5098 1281.08 45.7207C1280.68 46.1152 1280.29 46.5098 1279.89 46.7071C1279.69 46.7071 1279.29 46.7071 1279.29 46.5098C1279.29 45.918 1279.09 45.3261 1278.89 44.9316C1278.69 44.537 1277.89 43.1561 1278.09 42.9588C1278.29 41.9724 1278.49 40.9861 1278.49 39.9997C1278.09 40.3942 1277.69 40.7888 1277.3 40.9861C1277.1 40.9861 1276.9 40.9861 1276.9 40.7888C1276.5 38.6187 1275.5 34.8705 1273.11 33.6868C1273.31 34.4759 1272.71 35.6596 1272.51 36.2514C1270.72 44.537 1270.92 53.2172 1273.91 61.1083C1274.31 62.0947 1274.7 63.2783 1275.3 64.2647C1275.5 64.2647 1275.7 64.2647 1275.7 64.2647C1276.3 64.6592 1276.9 65.2511 1277.3 65.8429C1277.3 64.462 1277.3 63.2783 1277.5 62.0947C1277.5 61.8974 1277.89 62.0947 1278.09 62.0947C1279.09 63.2783 1279.49 64.8565 1279.49 66.4347C1279.69 66.2375 1279.69 66.2375 1279.89 66.0402C1280.68 65.6456 1281.68 65.4484 1282.48 65.4484C1282.48 65.4484 1282.88 65.6456 1282.68 65.6456C1282.08 66.0402 1281.48 66.632 1281.08 67.2238C1281.48 67.0266 1281.88 66.8293 1282.28 66.8293C1283.48 66.632 1284.87 67.0266 1285.47 68.2102C1285.67 68.4075 1285.27 68.4075 1285.07 68.4075C1282.88 67.6184 1281.28 69.1966 1280.88 71.1694C1280.88 71.1694 1280.88 71.1694 1280.68 71.1694C1280.49 71.1694 1280.29 71.1694 1280.09 71.1694C1280.09 71.1694 1280.09 71.1694 1279.89 71.1694H1279.69C1277.1 70.9721 1274.31 71.5639 1271.71 72.353C1271.71 72.353 1271.71 72.353 1271.51 72.353C1271.51 72.353 1271.12 72.5503 1270.72 72.5503C1270.52 72.5503 1270.52 72.5503 1270.32 72.7476C1270.12 72.7476 1270.12 72.9449 1269.92 72.9449C1269.52 73.1421 1269.12 73.1421 1268.92 73.3394C1268.33 73.5367 1267.73 73.734 1267.13 73.9313C1266.33 74.1285 1264.74 73.9313 1264.74 72.9449C1264.74 72.5503 1264.94 72.353 1265.34 72.1558C1263.34 72.7476 1261.15 73.5367 1259.36 72.5503L1259.16 72.353C1260.15 71.1694 1261.35 70.3803 1262.74 70.183C1260.75 69.9857 1258.56 69.9857 1256.96 70.9721C1256.96 70.9721 1256.37 70.9721 1256.37 70.7748C1257.56 69.5912 1258.76 68.9993 1260.15 68.6048C1260.15 68.6048 1260.15 68.6048 1260.35 68.6048C1260.55 68.6048 1260.55 68.6048 1260.75 68.6048C1261.15 68.6048 1261.35 68.6048 1261.75 68.6048L1261.55 68.4075C1260.95 67.8157 1260.35 67.2238 1260.35 66.4347C1260.35 66.4347 1260.35 66.2375 1260.55 66.2375C1261.75 66.2375 1263.14 66.4347 1264.14 66.8293C1263.14 65.2511 1262.35 63.6729 1261.55 62.0947C1261.55 61.8974 1261.95 62.0947 1261.95 62.0947C1264.34 62.8838 1265.93 64.6592 1266.93 66.8293C1264.74 55.9791 1264.34 43.9452 1270.12 34.4759C1270.32 34.0814 1270.72 33.4895 1271.12 33.095C1269.92 33.4895 1268.72 34.2786 1267.73 35.0678C1267.13 35.4623 1266.93 36.2514 1266.33 36.4487C1265.53 36.646 1264.74 36.8432 1263.94 37.0405C1263.74 37.0405 1263.54 37.0405 1263.54 36.8432C1263.54 36.646 1263.74 36.4487 1263.74 36.2514C1263.34 36.646 1263.14 37.0405 1262.54 37.2378C1261.15 38.0269 1259.55 38.816 1258.36 39.8024C1258.16 39.9997 1257.96 39.8024 1257.76 39.6051C1257.76 39.4078 1257.76 39.4078 1257.76 39.2106C1257.56 39.6051 1257.36 39.9997 1256.96 40.1969C1255.77 40.7888 1254.77 41.3806 1253.57 42.1697C1253.18 42.367 1251.98 43.9452 1251.18 43.9452C1251.18 44.3398 1251.18 44.7343 1250.98 44.9316C1250.19 45.918 1249.39 46.9043 1248.79 48.088C1248.79 48.2853 1248.39 48.088 1248.19 48.088C1247 45.7207 1246.4 42.7615 1246.6 39.9997L1246.4 40.1969C1246.4 40.7888 1246 40.5915 1246 40.5915Z" fill="#051922"/>
<path d="M-6 0C-6 0 695.5 181.914 1099.5 104.165C1503.5 26.415 1443 17 1443 17V409.696H3L-6 0Z" fill="url(#paint0_radial_66_249)"/>
<path d="M3 169.981C3 169.981 497 135.984 901 58.5C1305 -18.9841 1443 192.076 1443 192.076V410H3V169.981Z" fill="url(#paint1_radial_66_249)"/>
<path d="M1443 192.408C1443 192.408 1427.5 351.878 1065 212.439C702.5 73 3 212.439 3 212.439V410H1443V192.408Z" fill="url(#paint2_radial_66_249)"/>
</g>
<defs>
<radialGradient id="paint0_radial_66_249" cx="0" cy="0" r="1" gradientUnits="userSpaceOnUse" gradientTransform="translate(723 -6.99308) rotate(90) scale(410.311 949.922)">
<stop stop-color="#104258"/>
<stop offset="1" stop-color="#051922" stop-opacity="0"/>
</radialGradient>
<radialGradient id="paint1_radial_66_249" cx="0" cy="0" r="1" gradientUnits="userSpaceOnUse" gradientTransform="translate(722.999 104.301) rotate(90) scale(299.343 695.391)">
<stop stop-color="#105850"/>
<stop offset="1" stop-color="#051922" stop-opacity="0"/>
</radialGradient>
<radialGradient id="paint2_radial_66_249" cx="0" cy="0" r="1" gradientUnits="userSpaceOnUse" gradientTransform="translate(723 132.865) rotate(90) scale(271.373 695.391)">
<stop stop-color="#0C4B5F"/>
<stop offset="1" stop-color="#051922" stop-opacity="0"/>
</radialGradient>
<clipPath id="clip0_66_249">
<rect width="1440" height="410" fill="white"/>
</clipPath>
</defs>
</svg>
