<svg width="17" height="17" viewBox="0 0 17 17" fill="none" xmlns="http://www.w3.org/2000/svg">
<path d="M16.7438 10.5565C15.6085 15.1101 10.9965 17.8814 6.44232 16.7459C1.89007 15.6106 -0.881172 10.9983 0.254562 6.44501C1.3893 1.8909 6.00138 -0.880552 10.5541 0.254685C15.1079 1.38992 17.879 6.00278 16.7437 10.5566L16.7437 10.5565H16.7438Z" fill="#F3BA2F"/>
<path fill-rule="evenodd" clip-rule="evenodd" d="M8.50002 5.395L6.299 7.59602L6.29904 7.59593L5.01842 6.31526L8.50002 2.83366L11.9828 6.31631L10.7021 7.59697L8.50002 5.395ZM4.11403 7.21944L2.83331 8.50033L4.11393 9.78077L5.39465 8.50006L4.11403 7.21944ZM6.29903 9.40477L8.50006 11.6057L10.7021 9.40373L11.9834 10.6837L11.9828 10.6844L8.50006 14.167L5.01846 10.6854L5.01664 10.6836L6.29903 9.40477ZM12.8861 7.22016L11.6054 8.50087L12.886 9.78149L14.1667 8.50078L12.8861 7.22016Z" fill="white"/>
<path d="M9.79886 8.49966H9.79941L8.49997 7.20013L7.5395 8.16034L7.42915 8.27073L7.20158 8.49835L7.19977 8.50011L7.20158 8.50197L8.49997 9.80054L9.7995 8.50102L9.80013 8.50029L9.79895 8.49966" fill="white"/>
</svg>
