<svg width="18" height="19" viewBox="0 0 18 19" fill="none" xmlns="http://www.w3.org/2000/svg">
<path d="M0 8.92442C0 7.97248 0.717607 7.19903 1.43521 6.72306C1.37541 6.72306 1.31561 6.72306 1.31561 6.66357C1.49502 6.36609 1.79402 6.1876 2.03322 5.94961C2.27242 5.77113 2.51163 5.65213 2.75083 5.59264C2.87043 5.53314 3.04983 5.53314 3.22923 5.47364C3.28904 5.47364 3.16944 5.47364 3.10963 5.41415L3.04983 5.35465C4.24585 4.70019 5.74086 5.29516 6.87708 6.00911C6.87708 5.89012 6.81728 5.77112 6.81728 5.71163C6.81728 5.77112 6.69767 5.71163 6.63787 5.71163C6.33887 5.47364 6.09967 5.23566 5.80066 4.99767C5.74086 4.93818 5.74086 4.87868 5.68106 4.81919V4.87868C5.68106 4.93818 5.56146 4.87868 5.50166 4.87868C5.26246 4.70019 5.08306 4.52171 4.84385 4.34322C4.90365 4.22423 4.84385 4.10523 4.84385 4.04574H4.72425C4.36545 3.86725 4.00664 3.62926 3.64784 3.45078C3.40864 3.33178 3.34884 3.21279 3.28904 3.0343C3.28904 3.0938 3.28904 3.0938 3.22923 3.1533C3.22923 3.21279 3.10963 3.1533 3.10963 3.1533C2.75083 2.97481 2.45183 2.73682 2.09302 2.55833C1.85382 2.37985 1.79402 2.32035 1.73422 2.20136V2.26085C1.73422 2.32035 1.61462 2.26085 1.61462 2.26085C1.37542 2.08236 0.95681 1.96337 0.897009 1.66589C0.777408 1.18992 0.717607 0.713954 0.598005 0.237985C0.717607 0.237985 0.837209 0.178488 0.95681 0.178488C1.13621 0.118992 1.31561 0.118992 1.49502 0.118992C1.55482 0.118992 1.61462 0.118992 1.67442 0.118992C1.97342 0.0594961 2.27242 0.0594961 2.57143 0.118992C2.75083 0.118992 2.93023 0.237985 2.99003 0H3.04983C3.82724 0.118992 5.02325 0.356977 5.62126 0.951938C5.62126 0.892442 5.62126 0.892442 5.62126 0.832946C5.68106 0.832946 5.74086 0.832946 5.74086 0.832946C6.45847 1.24942 7.11628 1.84438 7.41528 2.67733L7.47508 2.61783C7.47508 2.55833 7.59468 2.61783 7.65448 2.67733C8.01329 3.1533 8.19269 3.68876 8.25249 4.28372C8.31229 4.04574 8.43189 3.80775 8.55149 3.56977C8.6711 3.21279 8.7907 2.97481 9.0299 2.91531C9.0299 2.91531 9.0897 2.91531 9.1495 2.91531C9.1495 2.79632 9.1495 2.67733 9.1495 2.61783C9.2691 2.43934 9.4485 2.32035 9.62791 2.14186C10.0465 1.78488 10.5249 1.5469 11.0033 1.36841C11.0631 1.36841 11.1229 1.36841 11.1229 1.42791C11.1229 1.42791 11.1229 1.42791 11.1229 1.4874C11.4219 1.13043 12.0797 1.01143 12.5581 0.951938C12.9767 0.832946 13.3355 0.77345 13.7542 0.77345C13.7542 0.77345 13.8738 0.77345 13.8738 0.832946C13.814 0.892442 13.7542 0.951938 13.7542 1.01143C15.5482 1.07093 17.3422 2.32035 18 4.04574C18 4.10523 17.8804 4.04574 17.8804 4.04574C17.4618 3.74826 16.9236 3.68876 16.4452 3.74826C16.3854 3.74826 16.3256 3.74826 16.3256 3.68876C16.3256 3.62926 16.3256 3.56977 16.3256 3.51027C16.0864 3.68876 15.907 3.86725 15.7874 4.10523C15.7874 4.16473 15.7276 4.10523 15.6678 4.10523C15.309 3.98624 14.8904 3.86725 14.5316 3.86725C14.4718 3.86725 14.412 3.86725 14.412 3.80775C14.412 3.74826 14.412 3.68876 14.412 3.62926C14.3522 3.74826 14.2924 3.86725 14.2326 3.98624H14.1728C13.5748 3.86725 12.8571 3.86725 12.2591 4.04574C12.1993 4.04574 12.1395 4.04574 12.1395 3.98624C12.0199 3.98624 12.0199 3.92674 12.0199 3.92674C11.9601 4.04574 11.9003 4.16473 11.8405 4.28372H11.7807C11.1827 4.28372 10.6445 4.52171 10.1661 4.81919C10.1063 4.81919 10.0465 4.81919 10.0465 4.75969L9.98671 4.70019C9.98671 4.75969 9.98671 4.87868 9.98671 4.93818C9.4485 5.17616 8.9701 5.53314 8.49169 5.94961C9.92691 5.05717 11.9003 5.11667 13.4551 5.77112C15.4286 6.54457 16.3854 8.56744 16.1462 10.6498C16.1462 10.7093 16.0266 10.6498 16.0266 10.6498C15.7874 10.5308 15.5482 10.4118 15.3688 10.2928C15.309 10.2333 15.2492 10.1738 15.1894 9.99535C15.1296 9.99535 15.1296 9.99535 15.0698 9.99535C14.7708 9.81686 14.5914 9.63837 14.2326 9.45989C14.2326 9.45989 14.1728 9.45988 14.1728 9.40039C14.1728 9.10291 14.113 8.80543 13.9934 8.56744C13.9934 8.62694 13.9934 8.68644 13.9336 8.74593C13.9336 8.80543 13.814 8.74593 13.814 8.74593C13.6944 8.68644 13.3953 8.62694 13.3355 8.44845C13.2757 8.26996 13.2159 8.03198 13.1561 7.85349C13.1561 7.85349 13.1561 7.85349 13.1561 7.91299C13.1561 7.97248 13.0365 7.91299 13.0365 7.91299C12.7973 7.79399 12.4983 7.6155 12.1993 7.55601C12.1993 7.55601 12.1395 7.55601 12.1395 7.49651C12.0797 7.31802 12.0199 7.13954 11.9003 7.02054C11.9003 7.08004 11.9003 7.19903 11.9003 7.25853C11.9003 7.31802 11.8405 7.25853 11.7807 7.25853C12.0199 7.49651 12.1993 7.675 12.3189 7.91299C13.4551 9.45988 13.814 12.6132 12.0199 13.8626C11.9601 13.8626 11.9003 13.8626 11.8405 13.8031C11.6611 13.2676 11.3621 12.8512 11.0033 12.4347C11.1229 12.2562 11.1827 12.0182 11.1827 11.7802C11.1229 11.8992 11.0033 12.0182 10.9435 12.1372C10.8837 12.1967 10.8239 12.1372 10.7641 12.0777C10.5847 11.7207 10.4053 11.3638 10.2259 11.0663C10.3455 10.8878 10.4651 10.7093 10.5249 10.4713C10.4053 10.5903 10.2857 10.7093 10.1661 10.7688C10.1063 10.7688 9.98671 10.7688 9.98671 10.7093C9.98671 10.5308 9.92691 10.3523 9.86711 10.2333C9.80731 10.1143 9.56811 9.69787 9.62791 9.63837C9.68771 9.34089 9.74751 9.04341 9.74751 8.74593C9.62791 8.86492 9.50831 8.98392 9.3887 9.04341C9.3289 9.04341 9.2691 9.04341 9.2691 8.98392C9.1495 8.32946 8.8505 7.19903 8.13289 6.84206C8.19269 7.08004 8.01329 7.43702 7.95349 7.6155C7.41528 10.1143 7.47508 12.7322 8.37209 15.112C8.49169 15.4095 8.6113 15.7665 8.7907 16.064C8.8505 16.064 8.9103 16.064 8.9103 16.064C9.0897 16.1829 9.2691 16.3614 9.3887 16.5399C9.3887 16.1235 9.3887 15.7665 9.4485 15.4095C9.4485 15.35 9.56811 15.4095 9.62791 15.4095C9.92691 15.7665 10.0465 16.2424 10.0465 16.7184C10.1063 16.6589 10.1063 16.6589 10.1661 16.5994C10.4053 16.4804 10.7043 16.4209 10.9435 16.4209C10.9435 16.4209 11.0631 16.4804 11.0033 16.4804C10.8239 16.5994 10.6445 16.7779 10.5249 16.9564C10.6445 16.8969 10.7641 16.8374 10.8837 16.8374C11.2425 16.7779 11.6611 16.8969 11.8405 17.2539C11.9003 17.3134 11.7807 17.3134 11.7209 17.3134C11.0631 17.0754 10.5847 17.5514 10.4651 18.1463C10.4651 18.1463 10.4651 18.1463 10.4053 18.1463C10.3455 18.1463 10.2857 18.1463 10.2259 18.1463C10.2259 18.1463 10.2259 18.1463 10.1661 18.1463H10.1063C9.3289 18.0868 8.49169 18.2653 7.71428 18.5033C7.71428 18.5033 7.71429 18.5033 7.65448 18.5033C7.65448 18.5033 7.53488 18.5628 7.41528 18.5628C7.35548 18.5628 7.35548 18.5628 7.29568 18.6223C7.23588 18.6223 7.23588 18.6818 7.17608 18.6818C7.05648 18.7413 6.93688 18.7413 6.87708 18.8008C6.69767 18.8603 6.51827 18.9198 6.33887 18.9793C6.09967 19.0388 5.62126 18.9793 5.62126 18.6818C5.62126 18.5628 5.68106 18.5033 5.80066 18.4438C5.20266 18.6223 4.54485 18.8603 4.00664 18.5628L3.94684 18.5033C4.24585 18.1463 4.60465 17.9083 5.02326 17.8488C4.42525 17.7893 3.76744 17.7893 3.28904 18.0868C3.28904 18.0868 3.10963 18.0868 3.10963 18.0273C3.46844 17.6704 3.82724 17.4919 4.24585 17.3729C4.24585 17.3729 4.24585 17.3729 4.30565 17.3729C4.36545 17.3729 4.36545 17.3729 4.42525 17.3729C4.54485 17.3729 4.60465 17.3729 4.72425 17.3729L4.66445 17.3134C4.48505 17.1349 4.30565 16.9564 4.30565 16.7184C4.30565 16.7184 4.30565 16.6589 4.36545 16.6589C4.72425 16.6589 5.14286 16.7184 5.44186 16.8374C5.14286 16.3614 4.90365 15.8855 4.66445 15.4095C4.66445 15.35 4.78405 15.4095 4.78405 15.4095C5.50166 15.6475 5.98007 16.1829 6.27907 16.8374C5.62126 13.5651 5.50166 9.93585 7.23588 7.08004C7.29568 6.96105 7.41528 6.78256 7.53488 6.66357C7.17608 6.78256 6.81727 7.02054 6.51827 7.25853C6.33887 7.37752 6.27907 7.61551 6.09967 7.675C5.86046 7.7345 5.62126 7.79399 5.38206 7.85349C5.32226 7.85349 5.26246 7.85349 5.26246 7.79399C5.26246 7.7345 5.32226 7.675 5.32226 7.6155C5.20266 7.7345 5.14286 7.85349 4.96346 7.91299C4.54485 8.15097 4.06644 8.38896 3.70764 8.68644C3.64784 8.74593 3.58804 8.68644 3.52824 8.62694C3.52824 8.56744 3.52824 8.56744 3.52824 8.50795C3.46844 8.62694 3.40864 8.74593 3.28904 8.80543C2.93023 8.98392 2.63123 9.1624 2.27242 9.40039C2.15282 9.45988 1.79402 9.93585 1.55482 9.93585C1.55482 10.0548 1.55482 10.1738 1.49502 10.2333C1.25581 10.5308 1.01661 10.8283 0.837208 11.1853C0.837208 11.2448 0.717607 11.1853 0.657806 11.1853C0.299002 10.4713 0.119601 9.57888 0.179401 8.74593L0.1196 8.80543C0.1196 8.98392 0 8.92442 0 8.92442Z" fill="#7EFF01"/>
</svg>
