<svg width="86" height="86" viewBox="0 0 86 86" fill="none" xmlns="http://www.w3.org/2000/svg">
<g filter="url(#filter0_d_255_976)">
<circle cx="43.0003" cy="39.0002" r="22.0002" fill="#7EFF01"/>
<path d="M65.0001 39.0002C65.0001 51.1505 55.1503 61.0003 42.9999 61.0003C30.8496 61.0003 20.9998 51.1505 20.9998 39.0002C20.9998 39.0002 21.693 44.5002 31.8166 44.5002C43.967 44.5002 65.0001 26.8498 65.0001 39.0002Z" fill="url(#paint0_linear_255_976)"/>
<path d="M32.0786 38.251C32.0786 36.9229 33.0745 35.8438 34.0705 35.1797C33.9875 35.1797 33.9045 35.1797 33.9045 35.0967C34.1535 34.6817 34.5685 34.4327 34.9005 34.1007C35.2325 33.8516 35.5645 33.6856 35.8965 33.6026C36.0625 33.5196 36.3115 33.5196 36.5605 33.4366C36.6435 33.4366 36.4775 33.4366 36.3945 33.3536L36.3115 33.2706C37.9715 32.3575 40.0465 33.1876 41.6235 34.1837C41.6235 34.0177 41.5405 33.8516 41.5405 33.7686C41.5405 33.8516 41.3745 33.7686 41.2915 33.7686C40.8765 33.4366 40.5445 33.1046 40.1295 32.7726C40.0465 32.6896 40.0465 32.6066 39.9635 32.5235V32.6066C39.9635 32.6896 39.7975 32.6066 39.7145 32.6066C39.3825 32.3575 39.1335 32.1085 38.8015 31.8595C38.8845 31.6935 38.8015 31.5275 38.8015 31.4445H38.6355C38.1375 31.1954 37.6395 30.8634 37.1415 30.6144C36.8095 30.4484 36.7265 30.2824 36.6435 30.0334C36.6435 30.1164 36.6435 30.1164 36.5605 30.1994C36.5605 30.2824 36.3945 30.1994 36.3945 30.1994C35.8965 29.9504 35.4815 29.6183 34.9835 29.3693C34.6515 29.1203 34.5685 29.0373 34.4855 28.8713V28.9543C34.4855 29.0373 34.3195 28.9543 34.3195 28.9543C33.9875 28.7053 33.4065 28.5393 33.3235 28.1242C33.1575 27.4602 33.0745 26.7961 32.9085 26.1321C33.0745 26.1321 33.2405 26.0491 33.4065 26.0491C33.6555 25.9661 33.9045 25.9661 34.1535 25.9661C34.2365 25.9661 34.3195 25.9661 34.4025 25.9661C34.8175 25.8831 35.2325 25.8831 35.6475 25.9661C35.8965 25.9661 36.1455 26.1321 36.2285 25.8001H36.3115C37.3905 25.9661 39.0505 26.2981 39.8805 27.1282C39.8805 27.0452 39.8805 27.0452 39.8805 26.9621C39.9635 26.9621 40.0465 26.9621 40.0465 26.9621C41.0425 27.5432 41.9555 28.3732 42.3705 29.5353L42.4535 29.4523C42.4535 29.3693 42.6195 29.4523 42.7025 29.5353C43.2005 30.1994 43.4495 30.9464 43.5325 31.7765C43.6155 31.4445 43.7815 31.1124 43.9475 30.7804C44.1135 30.2824 44.2795 29.9504 44.6115 29.8674C44.6115 29.8674 44.6945 29.8674 44.7775 29.8674C44.7775 29.7013 44.7775 29.5353 44.7775 29.4523C44.9435 29.2033 45.1925 29.0373 45.4415 28.7883C46.0225 28.2902 46.6865 27.9582 47.3505 27.7092C47.4335 27.7092 47.5165 27.7092 47.5165 27.7922C47.5165 27.7922 47.5165 27.7922 47.5165 27.8752C47.9315 27.3772 48.8445 27.2112 49.5084 27.1282C50.0894 26.9621 50.5874 26.8791 51.1684 26.8791C51.1684 26.8791 51.3344 26.8791 51.3344 26.9621C51.2514 27.0452 51.1684 27.1282 51.1684 27.2112C53.6584 27.2942 56.1484 29.0373 57.0614 31.4445C57.0614 31.5275 56.8954 31.4445 56.8954 31.4445C56.3144 31.0294 55.5674 30.9464 54.9034 31.0294C54.8204 31.0294 54.7374 31.0294 54.7374 30.9464C54.7374 30.8634 54.7374 30.7804 54.7374 30.6974C54.4054 30.9464 54.1564 31.1954 53.9904 31.5275C53.9904 31.6105 53.9074 31.5275 53.8244 31.5275C53.3264 31.3615 52.7454 31.1954 52.2474 31.1954C52.1644 31.1954 52.0814 31.1954 52.0814 31.1124C52.0814 31.0294 52.0814 30.9464 52.0814 30.8634C51.9984 31.0294 51.9154 31.1954 51.8324 31.3615H51.7494C50.9194 31.1954 49.9234 31.1954 49.0934 31.4445C49.0104 31.4445 48.9275 31.4445 48.9275 31.3615C48.7615 31.3615 48.7615 31.2785 48.7615 31.2785C48.6785 31.4445 48.5955 31.6105 48.5125 31.7765H48.4295C47.5995 31.7765 46.8525 32.1085 46.1885 32.5235C46.1055 32.5235 46.0225 32.5235 46.0225 32.4405L45.9395 32.3575C45.9395 32.4405 45.9395 32.6066 45.9395 32.6896C45.1925 33.0216 44.5285 33.5196 43.8645 34.1007C45.8565 32.8556 48.5955 32.9386 50.7534 33.8516C53.4924 34.9307 54.8204 37.7529 54.4884 40.6581C54.4884 40.7411 54.3224 40.6581 54.3224 40.6581C53.9904 40.4921 53.6584 40.3261 53.4094 40.1601C53.3264 40.0771 53.2434 39.9941 53.1604 39.7451C53.0774 39.7451 53.0774 39.7451 52.9944 39.7451C52.5794 39.496 52.3304 39.247 51.8324 38.998C51.8324 38.998 51.7494 38.998 51.7494 38.915C51.7494 38.5 51.6664 38.0849 51.5004 37.7529C51.5004 37.8359 51.5004 37.9189 51.4174 38.0019C51.4174 38.0849 51.2514 38.0019 51.2514 38.0019C51.0854 37.9189 50.6704 37.8359 50.5874 37.5869C50.5044 37.3379 50.4214 37.0059 50.3384 36.7569C50.3384 36.7569 50.3384 36.7568 50.3384 36.8399C50.3384 36.9229 50.1724 36.8399 50.1724 36.8399C49.8404 36.6738 49.4254 36.4248 49.0105 36.3418C49.0105 36.3418 48.9275 36.3418 48.9275 36.2588C48.8445 36.0098 48.7615 35.7608 48.5955 35.5948C48.5955 35.6778 48.5955 35.8438 48.5955 35.9268C48.5955 36.0098 48.5125 35.9268 48.4295 35.9268C48.7615 36.2588 49.0105 36.5078 49.1764 36.8399C50.7534 38.998 51.2514 43.3973 48.7615 45.1405C48.6785 45.1405 48.5955 45.1405 48.5125 45.0574C48.2635 44.3104 47.8485 43.7294 47.3505 43.1483C47.5165 42.8993 47.5995 42.5673 47.5995 42.2352C47.5165 42.4013 47.3505 42.5673 47.2675 42.7333C47.1845 42.8163 47.1015 42.7333 47.0185 42.6503C46.7695 42.1522 46.5205 41.6542 46.2715 41.2392C46.4375 40.9902 46.6035 40.7411 46.6865 40.4091C46.5205 40.5751 46.3545 40.7411 46.1885 40.8241C46.1055 40.8241 45.9395 40.8241 45.9395 40.7411C45.9395 40.4921 45.8565 40.2431 45.7735 40.0771C45.6905 39.9111 45.3585 39.33 45.4415 39.247C45.5245 38.832 45.6075 38.417 45.6075 38.0019C45.4415 38.168 45.2755 38.334 45.1095 38.417C45.0265 38.417 44.9435 38.417 44.9435 38.334C44.7775 37.4209 44.3625 35.8438 43.3665 35.3457C43.4495 35.6778 43.2005 36.1758 43.1175 36.4248C42.3705 39.9111 42.4535 43.5633 43.6985 46.8836C43.8645 47.2986 44.0305 47.7966 44.2795 48.2117C44.3625 48.2117 44.4455 48.2117 44.4455 48.2117C44.6945 48.3777 44.9435 48.6267 45.1095 48.8757C45.1095 48.2947 45.1095 47.7966 45.1925 47.2986C45.1925 47.2156 45.3585 47.2986 45.4415 47.2986C45.8565 47.7966 46.0225 48.4607 46.0225 49.1247C46.1055 49.0417 46.1055 49.0417 46.1885 48.9587C46.5205 48.7927 46.9355 48.7097 47.2675 48.7097C47.2675 48.7097 47.4335 48.7927 47.3505 48.7927C47.1015 48.9587 46.8525 49.2077 46.6865 49.4568C46.8525 49.3738 47.0185 49.2908 47.1845 49.2908C47.6825 49.2077 48.2635 49.3738 48.5125 49.8718C48.5955 49.9548 48.4295 49.9548 48.3465 49.9548C47.4335 49.6228 46.7695 50.2868 46.6035 51.1169C46.6035 51.1169 46.6035 51.1169 46.5205 51.1169C46.4375 51.1169 46.3545 51.1169 46.2715 51.1169C46.2715 51.1169 46.2715 51.1169 46.1885 51.1169H46.1055C45.0265 51.0339 43.8645 51.2829 42.7855 51.6149C42.7855 51.6149 42.7855 51.6149 42.7025 51.6149C42.7025 51.6149 42.5365 51.6979 42.3705 51.6979C42.2875 51.6979 42.2875 51.6979 42.2045 51.7809C42.1215 51.7809 42.1215 51.8639 42.0385 51.8639C41.8725 51.9469 41.7065 51.9469 41.6235 52.03C41.3745 52.113 41.1255 52.196 40.8765 52.279C40.5445 52.362 39.8805 52.279 39.8805 51.8639C39.8805 51.6979 39.9635 51.6149 40.1295 51.5319C39.2995 51.7809 38.3865 52.113 37.6395 51.6979L37.5565 51.6149C37.9715 51.1169 38.4695 50.7849 39.0505 50.7019C38.2205 50.6188 37.3075 50.6188 36.6435 51.0339C36.6435 51.0339 36.3945 51.0339 36.3945 50.9509C36.8925 50.4528 37.3905 50.2038 37.9715 50.0378C37.9715 50.0378 37.9715 50.0378 38.0545 50.0378C38.1375 50.0378 38.1375 50.0378 38.2205 50.0378C38.3865 50.0378 38.4695 50.0378 38.6355 50.0378L38.5525 49.9548C38.3035 49.7058 38.0545 49.4568 38.0545 49.1247C38.0545 49.1247 38.0545 49.0417 38.1375 49.0417C38.6355 49.0417 39.2165 49.1247 39.6315 49.2908C39.2165 48.6267 38.8845 47.9627 38.5525 47.2986C38.5525 47.2156 38.7185 47.2986 38.7185 47.2986C39.7145 47.6306 40.3785 48.3777 40.7935 49.2908C39.8805 44.7254 39.7145 39.6621 42.1215 35.6778C42.2045 35.5118 42.3705 35.2627 42.5365 35.0967C42.0385 35.2627 41.5405 35.5948 41.1255 35.9268C40.8765 36.0928 40.7935 36.4248 40.5445 36.5078C40.2125 36.5908 39.8805 36.6738 39.5485 36.7569C39.4655 36.7569 39.3825 36.7568 39.3825 36.6738C39.3825 36.5908 39.4655 36.5078 39.4655 36.4248C39.2995 36.5908 39.2165 36.7568 38.9675 36.8399C38.3865 37.1719 37.7225 37.5039 37.2245 37.9189C37.1415 38.0019 37.0585 37.9189 36.9755 37.8359C36.9755 37.7529 36.9755 37.7529 36.9755 37.6699C36.8925 37.8359 36.8095 38.0019 36.6435 38.0849C36.1455 38.334 35.7305 38.583 35.2325 38.915C35.0665 38.998 34.5685 39.6621 34.2365 39.6621C34.2365 39.8281 34.2365 39.9941 34.1535 40.0771C33.8215 40.4921 33.4895 40.9071 33.2405 41.4052C33.2405 41.4882 33.0745 41.4052 32.9915 41.4052C32.4935 40.4091 32.2446 39.164 32.3276 38.0019L32.2446 38.0849C32.2446 38.334 32.0786 38.251 32.0786 38.251ZM52.2474 31.1124C52.1644 31.1124 52.1644 31.1124 52.2474 31.1124C52.1644 31.1124 52.1644 31.1124 52.2474 31.1124Z" fill="#112832"/>
</g>
<defs>
<filter id="filter0_d_255_976" x="-0.000244141" y="0" width="86.0007" height="86.0003" filterUnits="userSpaceOnUse" color-interpolation-filters="sRGB">
<feFlood flood-opacity="0" result="BackgroundImageFix"/>
<feColorMatrix in="SourceAlpha" type="matrix" values="0 0 0 0 0 0 0 0 0 0 0 0 0 0 0 0 0 0 127 0" result="hardAlpha"/>
<feOffset dy="4"/>
<feGaussianBlur stdDeviation="10.5"/>
<feComposite in2="hardAlpha" operator="out"/>
<feColorMatrix type="matrix" values="0 0 0 0 0.494118 0 0 0 0 1 0 0 0 0 0.00392157 0 0 0 0.33 0"/>
<feBlend mode="normal" in2="BackgroundImageFix" result="effect1_dropShadow_255_976"/>
<feBlend mode="normal" in="SourceGraphic" in2="effect1_dropShadow_255_976" result="shape"/>
</filter>
<linearGradient id="paint0_linear_255_976" x1="42.9999" y1="34.7317" x2="42.9999" y2="61.0003" gradientUnits="userSpaceOnUse">
<stop stop-color="#FFF501"/>
<stop offset="1" stop-color="#FFF501" stop-opacity="0"/>
</linearGradient>
</defs>
</svg>
