<svg width="17" height="17" viewBox="0 0 17 17" fill="none" xmlns="http://www.w3.org/2000/svg">
<circle cx="8.50017" cy="8.50039" r="8.50005" fill="#7EFF01"/>
<path d="M17.0001 8.50039C17.0001 13.1948 13.1945 17.0004 8.50005 17.0004C3.8056 17.0004 0 13.1948 0 8.50039C0 8.50039 0.267841 10.6254 4.17924 10.6254C8.87369 10.6254 17.0001 3.80594 17.0001 8.50039Z" fill="url(#paint0_linear_255_996)"/>
<path d="M4.28041 8.21093C4.28041 7.6978 4.66522 7.28089 5.05004 7.02432C5.01797 7.02432 4.9859 7.02432 4.9859 6.99225C5.08211 6.8319 5.24244 6.73569 5.37072 6.60741C5.49899 6.5112 5.62726 6.44705 5.75553 6.41498C5.81967 6.38291 5.91587 6.38291 6.01208 6.35084C6.04414 6.35084 5.98001 6.35084 5.94794 6.31877L5.91587 6.2867C6.55723 5.93393 7.35893 6.25463 7.96822 6.63948C7.96822 6.57534 7.93615 6.51119 7.93615 6.47912C7.93615 6.51119 7.87202 6.47912 7.83995 6.47912C7.67961 6.35084 7.55134 6.22256 7.391 6.09428C7.35893 6.06221 7.35893 6.03014 7.32686 5.99807V6.03014C7.32686 6.06221 7.26273 6.03014 7.23066 6.03014C7.10239 5.93393 7.00618 5.83772 6.87791 5.7415C6.90998 5.67736 6.87791 5.61322 6.87791 5.58115H6.81377C6.62137 5.48494 6.42896 5.35666 6.23655 5.26045C6.10828 5.19631 6.07621 5.13217 6.04414 5.03595C6.04414 5.06802 6.04414 5.06802 6.01208 5.10009C6.01208 5.13217 5.94794 5.10009 5.94794 5.10009C5.75553 5.00388 5.59519 4.8756 5.40278 4.77939C5.27451 4.68318 5.24244 4.65111 5.21038 4.58697V4.61904C5.21038 4.65111 5.14624 4.61904 5.14624 4.61904C5.01797 4.52283 4.79349 4.45869 4.76143 4.29833C4.69729 4.04177 4.66522 3.78521 4.60109 3.52864C4.66522 3.52864 4.72936 3.49657 4.79349 3.49657C4.8897 3.4645 4.9859 3.4645 5.0821 3.4645C5.11417 3.4645 5.14624 3.4645 5.17831 3.4645C5.33865 3.43243 5.49899 3.43243 5.65933 3.4645C5.75553 3.4645 5.85174 3.52864 5.8838 3.40036H5.91587C6.33276 3.4645 6.97411 3.59278 7.29479 3.91349C7.29479 3.88142 7.29479 3.88142 7.29479 3.84935C7.32686 3.84935 7.35893 3.84935 7.35893 3.84935C7.74375 4.07384 8.09649 4.39454 8.25683 4.84353L8.2889 4.81146C8.2889 4.77939 8.35304 4.81146 8.38511 4.84353C8.57751 5.10009 8.67372 5.38873 8.70578 5.70943C8.73785 5.58115 8.80199 5.45287 8.86612 5.32459C8.93026 5.13217 8.9944 5.00388 9.12267 4.97181C9.12267 4.97181 9.15474 4.97181 9.1868 4.97181C9.1868 4.90767 9.1868 4.84353 9.1868 4.81146C9.25094 4.71525 9.34714 4.65111 9.44335 4.5549C9.66782 4.36247 9.92437 4.23419 10.1809 4.13798C10.213 4.13798 10.245 4.13798 10.245 4.17005C10.245 4.17005 10.245 4.17005 10.245 4.20212C10.4054 4.0097 10.7581 3.94556 11.0147 3.91349C11.2392 3.84935 11.4316 3.81728 11.656 3.81728C11.656 3.81728 11.7202 3.81728 11.7202 3.84935C11.6881 3.88142 11.656 3.91349 11.656 3.94556C12.6181 3.97763 13.5801 4.65111 13.9329 5.58115C13.9329 5.61322 13.8687 5.58115 13.8687 5.58115C13.6442 5.4208 13.3556 5.38873 13.0991 5.4208C13.067 5.4208 13.035 5.4208 13.035 5.38873C13.035 5.35666 13.035 5.32459 13.035 5.29252C12.9067 5.38873 12.8105 5.48494 12.7463 5.61322C12.7463 5.64529 12.7143 5.61322 12.6822 5.61322C12.4898 5.54908 12.2653 5.48494 12.0729 5.48494C12.0409 5.48494 12.0088 5.48494 12.0088 5.45287C12.0088 5.4208 12.0088 5.38873 12.0088 5.35666C11.9767 5.4208 11.9446 5.48494 11.9126 5.54908H11.8805C11.5598 5.48494 11.175 5.48494 10.8543 5.58115C10.8223 5.58115 10.7902 5.58115 10.7902 5.54908C10.7261 5.54908 10.7261 5.51701 10.7261 5.51701C10.694 5.58115 10.6619 5.64529 10.6299 5.70943H10.5978C10.2771 5.70943 9.9885 5.83772 9.73196 5.99807C9.69989 5.99807 9.66782 5.99807 9.66782 5.966L9.63576 5.93393C9.63576 5.966 9.63576 6.03014 9.63576 6.06221C9.34714 6.19049 9.0906 6.38291 8.83406 6.60741C9.60369 6.12635 10.6619 6.15842 11.4957 6.51119C12.5539 6.92811 13.067 8.01851 12.9388 9.14097C12.9388 9.17304 12.8746 9.14097 12.8746 9.14097C12.7463 9.07683 12.6181 9.01269 12.5219 8.94855C12.4898 8.91648 12.4577 8.88441 12.4257 8.7882C12.3936 8.7882 12.3936 8.7882 12.3615 8.7882C12.2012 8.69199 12.105 8.59578 11.9126 8.49956C11.9126 8.49956 11.8805 8.49956 11.8805 8.46749C11.8805 8.30714 11.8484 8.14679 11.7843 8.01851C11.7843 8.05058 11.7843 8.08265 11.7522 8.11472C11.7522 8.14679 11.6881 8.11472 11.6881 8.11472C11.624 8.08265 11.4636 8.05058 11.4316 7.95437C11.3995 7.85815 11.3674 7.72987 11.3354 7.63366C11.3354 7.63366 11.3354 7.63366 11.3354 7.66573C11.3354 7.6978 11.2712 7.66573 11.2712 7.66573C11.1429 7.60159 10.9826 7.50538 10.8223 7.47331C10.8223 7.47331 10.7902 7.47331 10.7902 7.44124C10.7581 7.34503 10.7261 7.24882 10.6619 7.18467C10.6619 7.21675 10.6619 7.28089 10.6619 7.31296C10.6619 7.34503 10.6299 7.31296 10.5978 7.31296C10.7261 7.44124 10.8223 7.53745 10.8864 7.66573C11.4957 8.49956 11.6881 10.1993 10.7261 10.8728C10.694 10.8728 10.6619 10.8728 10.6299 10.8407C10.5337 10.5521 10.3733 10.3276 10.1809 10.1031C10.245 10.0069 10.2771 9.87859 10.2771 9.75031C10.245 9.81445 10.1809 9.87859 10.1488 9.94273C10.1168 9.9748 10.0847 9.94273 10.0526 9.91066C9.95643 9.71824 9.86023 9.52582 9.76403 9.36547C9.82816 9.26926 9.8923 9.17304 9.92437 9.04476C9.86023 9.1089 9.79609 9.17304 9.73196 9.20511C9.69989 9.20511 9.63576 9.20511 9.63576 9.17304C9.63576 9.07683 9.60369 8.98062 9.57162 8.91648C9.53955 8.85234 9.41128 8.62785 9.44335 8.59578C9.47542 8.43542 9.50748 8.27507 9.50748 8.11472C9.44335 8.17886 9.37921 8.243 9.31508 8.27507C9.28301 8.27507 9.25094 8.27507 9.25094 8.243C9.1868 7.89022 9.02646 7.28089 8.64165 7.08846C8.67372 7.21675 8.57751 7.40917 8.54544 7.50538C8.25683 8.85234 8.2889 10.2634 8.76992 11.5463C8.83406 11.7066 8.89819 11.899 8.9944 12.0594C9.02646 12.0594 9.05853 12.0594 9.05853 12.0594C9.15474 12.1235 9.25094 12.2197 9.31508 12.3159C9.31508 12.0915 9.31508 11.899 9.34714 11.7066C9.34714 11.6745 9.41128 11.7066 9.44335 11.7066C9.60369 11.899 9.66782 12.1556 9.66782 12.4122C9.69989 12.3801 9.69989 12.3801 9.73196 12.348C9.86023 12.2839 10.0206 12.2518 10.1488 12.2518C10.1488 12.2518 10.213 12.2839 10.1809 12.2839C10.0847 12.348 9.9885 12.4442 9.92437 12.5404C9.9885 12.5084 10.0526 12.4763 10.1168 12.4763C10.3092 12.4442 10.5337 12.5084 10.6299 12.7008C10.6619 12.7329 10.5978 12.7329 10.5657 12.7329C10.213 12.6046 9.95643 12.8611 9.8923 13.1819C9.8923 13.1819 9.8923 13.1819 9.86023 13.1819C9.82816 13.1819 9.79609 13.1819 9.76403 13.1819C9.76403 13.1819 9.76403 13.1819 9.73196 13.1819H9.69989C9.28301 13.1498 8.83406 13.246 8.41717 13.3743C8.41717 13.3743 8.41717 13.3743 8.38511 13.3743C8.38511 13.3743 8.32097 13.4063 8.25683 13.4063C8.22476 13.4063 8.22476 13.4063 8.1927 13.4384C8.16063 13.4384 8.16063 13.4705 8.12856 13.4705C8.06442 13.5026 8.00029 13.5026 7.96822 13.5346C7.87202 13.5667 7.77581 13.5988 7.67961 13.6308C7.55134 13.6629 7.29479 13.6308 7.29479 13.4705C7.29479 13.4063 7.32686 13.3743 7.391 13.3422C7.07032 13.4384 6.71757 13.5667 6.42896 13.4063L6.39689 13.3743C6.55723 13.1819 6.74964 13.0536 6.97411 13.0215C6.65343 12.9894 6.30069 12.9894 6.04414 13.1498C6.04414 13.1498 5.94794 13.1498 5.94794 13.1177C6.14035 12.9253 6.33276 12.8291 6.55723 12.7649C6.55723 12.7649 6.55723 12.7649 6.5893 12.7649C6.62137 12.7649 6.62137 12.7649 6.65343 12.7649C6.71757 12.7649 6.74964 12.7649 6.81377 12.7649L6.78171 12.7329C6.6855 12.6367 6.5893 12.5404 6.5893 12.4122C6.5893 12.4122 6.5893 12.3801 6.62137 12.3801C6.81378 12.3801 7.03825 12.4122 7.19859 12.4763C7.03825 12.2197 6.90998 11.9632 6.78171 11.7066C6.78171 11.6745 6.84584 11.7066 6.84584 11.7066C7.23066 11.8349 7.4872 12.1235 7.64754 12.4763C7.29479 10.7124 7.23066 8.75613 8.16063 7.21675C8.1927 7.1526 8.25683 7.05639 8.32097 6.99225C8.12856 7.05639 7.93615 7.18467 7.77581 7.31296C7.67961 7.3771 7.64754 7.50538 7.55134 7.53745C7.42307 7.56952 7.29479 7.60159 7.16652 7.63366C7.13445 7.63366 7.10239 7.63366 7.10239 7.60159C7.10239 7.56952 7.13445 7.53745 7.13445 7.50538C7.07032 7.56952 7.03825 7.63366 6.94205 7.66573C6.71757 7.79401 6.46103 7.9223 6.26862 8.08265C6.23655 8.11472 6.20448 8.08265 6.17242 8.05058C6.17242 8.01851 6.17242 8.01851 6.17242 7.98644C6.14035 8.05058 6.10828 8.11472 6.04414 8.14679C5.85174 8.243 5.6914 8.33921 5.49899 8.46749C5.43485 8.49956 5.24244 8.75613 5.11417 8.75613C5.11417 8.82027 5.11417 8.88441 5.0821 8.91648C4.95383 9.07683 4.82556 9.23718 4.72936 9.42961C4.72936 9.46168 4.66522 9.42961 4.63315 9.42961C4.44075 9.04476 4.34454 8.5637 4.37661 8.11472L4.34454 8.14679C4.34454 8.243 4.28041 8.21093 4.28041 8.21093ZM12.0729 5.45287C12.0409 5.45287 12.0409 5.45287 12.0729 5.45287C12.0409 5.45287 12.0409 5.45287 12.0729 5.45287Z" fill="#112832"/>
<defs>
<linearGradient id="paint0_linear_255_996" x1="8.50005" y1="6.8512" x2="8.50005" y2="17.0004" gradientUnits="userSpaceOnUse">
<stop stop-color="#FFF501"/>
<stop offset="1" stop-color="#FFF501" stop-opacity="0"/>
</linearGradient>
</defs>
</svg>
